<svg width="12" height="12" viewBox="0 0 12 12" fill="none" xmlns="http://www.w3.org/2000/svg">
<path d="M1.48355 2.80791C2.30289 2.80791 2.9671 2.17999 2.9671 1.40542C2.9671 0.630846 2.30289 0.00292969 1.48355 0.00292969C0.664208 0.00292969 0 0.630846 0 1.40542C0 2.17999 0.664208 2.80791 1.48355 2.80791Z" fill="#0A142F"/>
<path d="M2.71984 3.74512H0.247258C0.110772 3.74512 0 3.84984 0 3.97887V10.9913C0 11.1203 0.110772 11.2251 0.247258 11.2251H2.71984C2.85633 11.2251 2.9671 11.1203 2.9671 10.9913V3.97887C2.9671 3.84984 2.85633 3.74512 2.71984 3.74512Z" fill="#0A142F"/>
<path d="M10.0885 3.35636C9.03175 3.01415 7.70991 3.31475 6.9172 3.85377C6.89 3.75326 6.79307 3.67846 6.67785 3.67846H4.20527C4.06878 3.67846 3.95801 3.78318 3.95801 3.91221V10.9247C3.95801 11.0537 4.06878 11.1584 4.20527 11.1584H6.67785C6.81434 11.1584 6.92511 11.0537 6.92511 10.9247V5.88505C7.32468 5.55967 7.83947 5.45588 8.2608 5.62512C8.66927 5.78827 8.90317 6.18658 8.90317 6.71719V10.9247C8.90317 11.0537 9.01395 11.1584 9.15043 11.1584H11.623C11.7595 11.1584 11.8703 11.0537 11.8703 10.9247V6.24642C11.8421 4.32548 10.8862 3.61441 10.0885 3.35636Z" fill="#0A142F"/>
</svg>
