<svg width="13" height="11" viewBox="0 0 13 11" fill="none" xmlns="http://www.w3.org/2000/svg">
<path d="M12.2202 2.08913C12.139 2.00236 12.0081 1.98054 11.9007 2.03406C11.8339 2.06731 11.7083 2.11096 11.5592 2.15408C11.7473 1.91092 11.8985 1.63866 11.9653 1.39394C11.9942 1.28846 11.952 1.17727 11.8601 1.1144C11.7682 1.05206 11.6458 1.05206 11.5539 1.1144C11.4091 1.2126 10.7102 1.50773 10.2683 1.60333C9.26957 0.752778 8.10738 0.66445 6.89924 1.35029C5.91712 1.9078 5.70338 3.04152 5.74506 3.73256C3.49709 3.52213 2.09979 2.36763 1.31324 1.41212C1.2582 1.3451 1.1695 1.30977 1.08614 1.31496C0.998509 1.3212 0.919427 1.36848 0.874542 1.44174C0.502641 2.05224 0.399513 2.72718 0.577449 3.39379C0.674699 3.7575 0.844619 4.07808 1.04179 4.33787C0.947213 4.29266 0.85584 4.23603 0.769811 4.16848C0.690729 4.1051 0.58012 4.09315 0.486611 4.13523C0.393635 4.17836 0.334323 4.2698 0.334323 4.37008C0.334323 5.51471 1.07065 6.27849 1.75834 6.67753C1.6472 6.66454 1.53125 6.64064 1.41423 6.60583C1.31377 6.57621 1.20476 6.60583 1.1353 6.68272C1.06584 6.7591 1.04927 6.86821 1.09255 6.96122C1.47888 7.79202 2.21093 8.36356 3.11664 8.57087C2.32581 9.02238 1.26728 9.24372 0.297988 9.13513C0.172418 9.11799 0.0527257 9.1954 0.0131845 9.31283C-0.0263567 9.43025 0.0254743 9.55911 0.136083 9.61938C1.60659 10.4221 2.93603 10.7089 4.08486 10.7089C5.75682 10.7089 7.04725 10.1021 7.83273 9.59444C9.95032 8.22795 11.2701 5.7745 11.0863 3.57928C11.4256 3.3356 11.9333 2.88565 12.248 2.40192C12.3132 2.30424 12.3014 2.17538 12.2202 2.08913Z" fill="#0A142F"/>
</svg>
